<?xml version="1.0" encoding="utf-8"?>
<!-- Generator: Adobe Illustrator 25.1.0, SVG Export Plug-In . SVG Version: 6.00 Build 0)  -->
<svg version="1.1" id="Layer_1" xmlns="http://www.w3.org/2000/svg" xmlns:xlink="http://www.w3.org/1999/xlink" x="0px" y="0px"
	 viewBox="0 0 211.4 124.8" style="enable-background:new 0 0 211.4 124.8;" xml:space="preserve">
<style type="text/css">
	.st0{fill:#FFFFFF;}
	.st1{fill:#E3242D;}
	.st2{fill:#231F20;}
	.st3{fill:#E8242A;}
	.st4{enable-background:new    ;}
</style>
<g>
	<g>
		<g>
			<g>
				<g id="XMLID_67_">
					<path class="st0" d="M73.1,86.2v1.6V86.2c11.2-0.1,21-2.1,29.1-6c6.9-3.3,12.8-8.2,17.4-14.4c8.2-11,11.4-24.2,13.7-36.9
						c1.3-7.2-1.4-11.9-3.9-14.7c-3.9-4.3-9.3-5.9-12.8-5.6c-1.5,0.1-4.2,1.2-7.6,2.7c-5.7,2.4-13.6,5.6-23.4,7.6
						c-11.7,2.4-23.6,2.4-35.2,0c-13.5-2.7-25.5-0.8-32.9,5.2C11.8,28.5,9.1,35,9.1,43.2c0,7.8,3.8,15.7,11,22.8
						c6,6,14,11,23.2,14.6C52.8,84.3,63.1,86.3,73.1,86.2z"/>
					<path class="st1" d="M73.1,87.8C39.6,88.1,7.5,66.5,7.5,43.2s21.1-30.3,43-25.9c35.1,7.1,58.8-9.7,65.8-10.3
						c8.2-0.7,21.1,7.3,18.5,22.2C130.7,51.7,122.1,87.3,73.1,87.8z"/>
				</g>
				<path class="st0" d="M117.7,11.5L117.7,11.5c3.1,0,7.2,1.6,9.5,4.5c2,2.5,4.1,7.5,2.8,15.1c-4.1,19.9-11.6,52.1-57.1,52.5h-0.6
					c-30.6,0-59.4-19.8-59.4-40.4c0-7.8,2.6-13.8,7.8-17.8c4.7-3.7,11.4-5.6,19.4-5.6c3.5,0,7.2,0.4,10.9,1.1
					c6,1.2,12.6,2.1,18.7,2.1c18.1,0,31.6-5.7,39.9-9c2.8-1.1,5-1.9,6.4-2.3C116.6,11.6,117.1,11.5,117.7,11.5 M117.7,9.1
					c-0.7,0-1.4,0.1-2.1,0.2c-6.5,1.5-22.5,12.1-46.1,12.1c-5.6,0-12.6-1.2-19-2.4c-3.9-0.8-7.7-1.2-11.4-1.2
					c-16.2,0-28.7,7.3-28.7,25.4c0,22,30.2,42.5,61.9,42.5c0.2,0,0.4,0,0.6,0c46.7-0.4,54.4-34.2,58.7-55.6
					C134.4,17,125.1,9.1,117.7,9.1L117.7,9.1z"/>
				<g id="XMLID_40_">
					<path class="st0" d="M31.9,35.9L44.1,52l12.2-16.1h1.3v25.4h-6.2V52l-7.3,9.3L36.8,52v9.4h-6.2V35.9H31.9z"/>
					<path class="st0" d="M60.7,35.9h17.5v6.2h-11v3.5h8.4v6.2h-8.4v3.5h11v6.2H60.7V35.9z"/>
					<path class="st0" d="M79.5,61.3L91.7,36h1.5l12.2,25.3h-6.7l-1.9-3.8h-8.7l-1.9,3.8H79.5z M90,52.2h4.8l-2.4-5L90,52.2z"/>
					<path class="st0" d="M100.7,36h19.8v6.1H114l0.2,19.2h-7l-0.1-19.2h-6.5L100.7,36L100.7,36z"/>
				</g>
				<path id="XMLID_37_" class="st2" d="M184.5,47.7c-0.3-1.2-0.9-2.3-1.6-3.3c-0.5-0.7-1.1-1.4-1.8-2s-1.4-1.1-2.2-1.5
					s-1.6-0.7-2.5-0.9s-1.8-0.3-2.7-0.3c-1.1,0-2.2,0.1-3.2,0.4c-1,0.3-1.9,0.7-2.8,1.2c-0.9,0.5-1.6,1.1-2.3,1.9
					c-0.7,0.7-1.3,1.5-1.8,2.4s-0.9,1.8-1.1,2.8c-0.3,1-0.4,2-0.4,3.1c0,1.7,0.3,3.2,1,4.6c0.6,1.4,1.5,2.7,2.6,3.8s2.4,1.9,3.8,2.5
					c1.5,0.6,3,0.9,4.6,0.9c1.5,0,2.9-0.3,4.1-0.8c1.3-0.5,2.4-1.2,3.5-2.1c0.5-0.3,0.7-0.7,0.7-1c0-0.1,0-0.3-0.1-0.4
					c-0.1-0.1-0.2-0.3-0.3-0.5s-0.3-0.4-0.6-0.7c-0.2-0.3-0.5-0.6-0.8-1c-0.1-0.2-0.3-0.3-0.4-0.4c-0.1-0.1-0.3-0.1-0.4-0.1
					c-0.1,0-0.3,0-0.4,0.1c-0.1,0.1-0.3,0.2-0.4,0.3l0,0c-0.3,0.3-0.6,0.5-1,0.7s-0.8,0.4-1.2,0.6c-0.4,0.2-0.9,0.3-1.4,0.4
					c-0.5,0.1-1,0.2-1.6,0.2c-0.7,0-1.4-0.1-2.1-0.4c-0.7-0.2-1.4-0.6-2-1c-0.6-0.5-1.1-1-1.6-1.7c-0.4-0.7-0.7-1.4-0.9-2.3h16
					c0.4,0,0.8,0,1-0.1s0.4-0.2,0.5-0.3s0.2-0.3,0.2-0.6c0-0.2,0-0.5,0-0.9C185,50.1,184.8,48.8,184.5,47.7z M167.3,49.1
					c0.2-0.7,0.5-1.3,0.9-1.9c0.4-0.6,0.9-1.1,1.5-1.6c0.6-0.4,1.2-0.8,1.8-1.1c0.7-0.3,1.4-0.4,2.1-0.4c0.8,0,1.6,0.1,2.3,0.4
					c0.7,0.2,1.3,0.6,1.9,1c0.6,0.4,1,1,1.4,1.6s0.7,1.3,0.9,2H167.3z"/>
				<path id="XMLID_36_" class="st2" d="M188.4,34.3c0-0.3,0.1-0.6,0.3-0.8s0.4-0.3,0.8-0.3h3.2c0.2,0,0.5,0.1,0.7,0.3
					s0.3,0.5,0.3,0.8v27.6c0,0.4-0.1,0.6-0.3,0.8s-0.5,0.3-0.8,0.3h-3c-0.4,0-0.7-0.1-0.8-0.3c-0.2-0.2-0.2-0.5-0.2-0.8V34.3H188.4z
					"/>
				<path id="XMLID_35_" class="st3" d="M198.3,34.3c0-0.7,0.4-1.1,1.1-1.1h3c0.3,0,0.6,0.1,0.8,0.3s0.3,0.5,0.3,0.8V37
					c0,0.3-0.1,0.5-0.3,0.8c-0.2,0.2-0.5,0.4-0.8,0.4h-3c-0.7,0-1.1-0.4-1.1-1.2V34.3z"/>
				<path id="XMLID_34_" class="st2" d="M198.3,41.1c0-0.3,0.1-0.6,0.3-0.8s0.4-0.3,0.8-0.3h3c0.1,0,0.3,0,0.4,0.1
					c0.1,0.1,0.3,0.1,0.4,0.2c0.1,0.1,0.2,0.2,0.3,0.4c0.1,0.1,0.1,0.3,0.1,0.4v20.7c0,0.7-0.4,1.1-1.1,1.1h-3
					c-0.7,0-1.1-0.4-1.1-1.1L198.3,41.1L198.3,41.1z"/>
				<path id="XMLID_33_" class="st2" d="M158.9,44.3c-0.7-1.6-1.7-3-2.9-4.3c-1.2-1.2-2.7-2.2-4.3-2.9c-1.7-0.7-3.4-1-5.4-1h-8.7
					c-0.6,0-0.8,0.3-0.8,0.8v19.2h5.2v-15h4.1c1.2,0,2.3,0.2,3.3,0.6c1,0.4,2,1,2.7,1.7c0.8,0.7,1.4,1.6,1.8,2.6
					c0.5,1,0.7,2.2,0.7,3.4s-0.2,2.3-0.6,3.3c-0.4,1-1,1.9-1.7,2.7s-1.6,1.4-2.6,1.8c-1,0.5-2.1,0.7-3.3,0.7c-0.9,0-1.8,0.1-2.7,0.1
					h-6.9v4.2c0,0.3,0.1,0.5,0.3,0.6s0.4,0.1,0.6,0.1h8.7c1.3,0,2.5-0.2,3.6-0.5c1.2-0.3,2.2-0.8,3.3-1.3c1-0.6,1.9-1.3,2.8-2.1
					c0.8-0.8,1.5-1.7,2.1-2.7s1-2.1,1.4-3.2c0.3-1.1,0.5-2.3,0.5-3.6C159.9,47.7,159.6,45.9,158.9,44.3z"/>
			</g>
		</g>
		<g class="st4">
			<path class="st3" d="M140.2,74.2H137V72h8.9v2.2h-3.2v9.4h-2.6v-9.4H140.2z"/>
			<path class="st3" d="M147.1,71.3h2.6v4.8l0,0c0.3-0.4,0.6-0.6,1-0.9c0.4-0.2,0.9-0.3,1.4-0.3c1.7,0,2.9,1.2,2.9,3.7v4.9h-2.6
				v-4.6c0-1.1-0.4-1.9-1.4-1.9c-0.7,0-1.1,0.4-1.3,0.9c-0.1,0.2-0.1,0.4-0.1,0.6v5H147V71.3H147.1z"/>
			<path class="st3" d="M159.8,72.8c0,0.7-0.5,1.3-1.4,1.3c-0.8,0-1.4-0.6-1.4-1.3c0-0.8,0.5-1.3,1.4-1.3S159.8,72,159.8,72.8z
				 M157.1,83.5v-8.4h2.6v8.4H157.1z M159.6,86.1c0,0.7-0.5,1.2-1.2,1.2s-1.2-0.6-1.2-1.2c0-0.7,0.5-1.2,1.2-1.2
				S159.6,85.4,159.6,86.1z"/>
			<path class="st3" d="M164.8,72.7v2.4h1.9V77h-1.9v3c0,1,0.2,1.5,1,1.5c0.3,0,0.6,0,0.8-0.1v2c-0.3,0.1-1,0.2-1.7,0.2
				c-0.8,0-1.5-0.3-2-0.7c-0.5-0.5-0.7-1.3-0.7-2.5V77h-1.1v-1.9h1.1v-1.8L164.8,72.7z"/>
			<path class="st3" d="M171.6,81.3c0.5,0.3,1.5,0.6,2.3,0.6s1.1-0.3,1.1-0.7c0-0.4-0.3-0.6-1.2-1c-1.7-0.6-2.4-1.5-2.4-2.5
				c0-1.6,1.3-2.8,3.4-2.8c1,0,1.9,0.2,2.4,0.5l-0.5,1.8c-0.4-0.2-1.1-0.5-1.8-0.5c-0.6,0-1,0.3-1,0.7c0,0.4,0.3,0.6,1.4,1
				c1.6,0.5,2.3,1.4,2.3,2.6c0,1.6-1.2,2.7-3.6,2.7c-1.1,0-2.1-0.2-2.7-0.6L171.6,81.3z"/>
			<path class="st3" d="M183.9,83.5l-0.2-0.8h-0.1c-0.5,0.7-1.4,1-2.4,1c-1.7,0-2.7-1.2-2.7-2.6c0-2.2,2-3.2,4.9-3.2v-0.1
				c0-0.4-0.2-1.1-1.5-1.1c-0.9,0-1.8,0.3-2.3,0.6l-0.5-1.7c0.6-0.3,1.7-0.7,3.3-0.7c2.8,0,3.7,1.7,3.7,3.6v2.9c0,0.8,0,1.6,0.1,2
				L183.9,83.5L183.9,83.5z M183.6,79.6c-1.4,0-2.4,0.3-2.4,1.3c0,0.7,0.4,1,1,1c0.7,0,1.2-0.4,1.4-1c0-0.1,0.1-0.3,0.1-0.4v-0.9
				H183.6z M183.8,86.1c0,0.7-0.5,1.2-1.2,1.2s-1.2-0.6-1.2-1.2c0-0.7,0.5-1.2,1.2-1.2S183.8,85.4,183.8,86.1z"/>
			<path class="st3" d="M194.5,83.3c-0.5,0.2-1.3,0.4-2.3,0.4c-2.7,0-4.5-1.7-4.5-4.3c0-2.5,1.7-4.5,4.8-4.5c0.7,0,1.4,0.1,2,0.3
				l-0.4,1.9c-0.3-0.1-0.8-0.3-1.5-0.3c-1.4,0-2.3,1-2.3,2.4c0,1.5,1,2.4,2.3,2.4c0.6,0,1.1-0.1,1.5-0.3L194.5,83.3z"/>
			<path class="st3" d="M195.9,71.3h2.6v4.8l0,0c0.3-0.4,0.6-0.6,1-0.9c0.4-0.2,0.9-0.3,1.4-0.3c1.7,0,2.9,1.2,2.9,3.7v4.9h-2.6
				v-4.6c0-1.1-0.4-1.9-1.4-1.9c-0.7,0-1.1,0.4-1.3,0.9c-0.1,0.2-0.1,0.4-0.1,0.6v5h-2.6V71.3H195.9z"/>
		</g>
	</g>
	<g class="st4">
		<path class="st3" d="M13.7,113.2c-0.4,0.2-1.3,0.4-2.4,0.4c-3.3,0-4.9-2-4.9-4.7c0-3.2,2.3-5,5.1-5c1.1,0,1.9,0.2,2.3,0.4
			l-0.4,1.7c-0.4-0.2-1-0.3-1.8-0.3c-1.7,0-3,1-3,3.1c0,1.9,1.1,3.1,3,3.1c0.6,0,1.4-0.1,1.8-0.3L13.7,113.2z"/>
		<path class="st3" d="M23.3,108.6c0,3.1-1.9,5-4.6,5c-2.8,0-4.4-2.1-4.4-4.8c0-2.8,1.8-4.9,4.6-4.9C21.7,103.9,23.3,106,23.3,108.6
			z M16.5,108.7c0,1.8,0.9,3.1,2.3,3.1s2.3-1.4,2.3-3.2c0-1.7-0.8-3.1-2.3-3.1C17.4,105.6,16.5,106.9,16.5,108.7z M19.6,101.8
			l1.4,1.7h-1.5l-0.7-0.9l0,0l-0.7,0.9h-1.5l1.4-1.7H19.6z"/>
		<path class="st3" d="M24.7,113.4V104h2.5l2,3.4c0.6,1,1.1,2.2,1.5,3.2l0,0c-0.1-1.2-0.2-2.5-0.2-3.9V104h2v9.4h-2.2l-2-3.6
			c-0.6-1-1.2-2.2-1.6-3.3l0,0c0.1,1.2,0.1,2.6,0.1,4.1v2.8H24.7z"/>
		<path class="st3" d="M42.2,113c-0.7,0.2-1.9,0.5-3.1,0.5c-1.7,0-3-0.4-3.8-1.3c-0.9-0.8-1.3-2-1.3-3.4c0-3.1,2.3-4.9,5.4-4.9
			c1.2,0,2.2,0.2,2.6,0.5l-0.4,1.7c-0.5-0.2-1.2-0.4-2.2-0.4c-1.8,0-3.1,1-3.1,3c0,1.9,1.2,3.1,3,3.1c0.5,0,0.9-0.1,1-0.1v-2h-1.5
			V108h3.5v5H42.2z"/>
		<path class="st3" d="M46.7,113.4V104h2.5l2,3.4c0.6,1,1.1,2.2,1.5,3.2l0,0c-0.1-1.2-0.2-2.5-0.2-3.9V104h2v9.4h-2.2l-2-3.6
			c-0.6-1-1.2-2.2-1.6-3.3l0,0c0.1,1.2,0.1,2.6,0.1,4.1v2.8H46.7z"/>
		<path class="st3" d="M64.2,113c-0.7,0.2-1.9,0.5-3.1,0.5c-1.7,0-3-0.4-3.8-1.3c-0.9-0.8-1.3-2-1.3-3.4c0-3.1,2.3-4.9,5.4-4.9
			c1.2,0,2.2,0.2,2.6,0.5l-0.4,1.7c-0.5-0.2-1.2-0.4-2.2-0.4c-1.8,0-3.1,1-3.1,3c0,1.9,1.2,3.1,3,3.1c0.5,0,0.9-0.1,1-0.1v-2h-1.5
			V108h3.5v5H64.2z"/>
		<path class="st3" d="M68,104v3.6h3.5V104h2.1v9.4h-2.1v-3.9H68v3.9h-2.1V104H68z"/>
		<path class="st3" d="M81.1,109.4h-3.5v2.2h3.9v1.7h-6V104h5.8v1.7h-3.7v2h3.5C81.1,107.7,81.1,109.4,81.1,109.4z M79.2,101.8
			l1.4,1.7h-1.5l-0.7-0.9l0,0l-0.7,0.9h-1.5l1.4-1.7H79.2z M77.5,115.5c0-0.5,0.4-1,1-1c0.5,0,0.9,0.4,0.9,1c0,0.5-0.4,0.9-0.9,0.9
			C77.9,116.5,77.5,116,77.5,115.5z"/>
		<path class="st3" d="M87,105.8h-2.5V104h7.2v1.8h-2.6v7.6H87V105.8z"/>
		<path class="st3" d="M95,104v3.6h3.5V104h2.1v9.4h-2.1v-3.9H95v3.9h-2.1V104H95z"/>
		<path class="st3" d="M104.6,104v9.4h-2.1V104H104.6z M102.6,115.5c0-0.5,0.4-1,1-1c0.5,0,0.9,0.4,0.9,1c0,0.5-0.4,0.9-0.9,0.9
			C103,116.5,102.6,116,102.6,115.5z"/>
		<path class="st3" d="M108.3,105.8h-2.5V104h7.2v1.8h-2.6v7.6h-2.1V105.8z"/>
		<path class="st3" d="M124.9,109.8c0-1.1-0.1-2.5-0.1-3.9l0,0c-0.3,1.2-0.7,2.5-1,3.6l-1.1,3.7H121l-1-3.6
			c-0.3-1.1-0.6-2.4-0.9-3.7l0,0c-0.1,1.3-0.1,2.7-0.2,3.9l-0.2,3.6h-2l0.6-9.4h2.8l0.9,3.1c0.3,1.1,0.6,2.3,0.8,3.4l0,0
			c0.3-1.1,0.6-2.3,0.9-3.4l1-3.1h2.8l0.5,9.4h-2L124.9,109.8z"/>
		<path class="st3" d="M130.9,111l-0.7,2.4H128l2.9-9.4h2.8l2.9,9.4h-2.3l-0.7-2.4H130.9z M133.3,109.4l-0.6-2
			c-0.2-0.6-0.3-1.3-0.5-1.8l0,0c-0.1,0.6-0.3,1.3-0.4,1.8l-0.6,2H133.3z M134.7,101.8l-1.7,1.7h-1.7l1.2-1.7H134.7z"/>
		<path class="st3" d="M138.5,105.8H136V104h7.2v1.8h-2.6v7.6h-2.1L138.5,105.8L138.5,105.8z"/>
		<path class="st3" d="M154.1,113.2c-0.4,0.2-1.3,0.4-2.4,0.4c-3.3,0-4.9-2-4.9-4.7c0-3.2,2.3-5,5.1-5c1.1,0,1.9,0.2,2.3,0.4
			l-0.4,1.7c-0.4-0.2-1-0.3-1.8-0.3c-1.7,0-3,1-3,3.1c0,1.9,1.1,3.1,3,3.1c0.6,0,1.4-0.1,1.8-0.3L154.1,113.2z"/>
		<path class="st3" d="M157.6,104v3.6h3.5V104h2.1v9.4h-2.1v-3.9h-3.5v3.9h-2.1V104H157.6z"/>
		<path class="st3" d="M167.3,111l-0.7,2.4h-2.2l2.9-9.4h2.8l2.9,9.4h-2.3L170,111H167.3z M169.6,101.8l1.4,1.7h-1.5l-0.7-0.9l0,0
			l-0.7,0.9h-1.5l1.4-1.7H169.6z M169.7,109.4l-0.6-2c-0.2-0.6-0.3-1.3-0.5-1.8l0,0c-0.1,0.6-0.3,1.3-0.4,1.8l-0.6,2H169.7z"/>
		<path class="st3" d="M175.9,104v5.4c0,1.6,0.6,2.4,1.7,2.4c1.1,0,1.7-0.8,1.7-2.4V104h2.1v5.3c0,2.9-1.5,4.3-3.9,4.3
			s-3.8-1.3-3.8-4.3V104H175.9z"/>
		<path class="st3" d="M188.3,111l-0.7,2.4h-2.2l2.9-9.4h2.8l2.9,9.4h-2.3L191,111H188.3z M190.6,101.8l1.4,1.7h-1.5l-0.7-0.9l0,0
			l-0.7,0.9h-1.5l1.4-1.7H190.6z M190.7,109.4l-0.6-2c-0.2-0.6-0.3-1.3-0.5-1.8l0,0c-0.1,0.6-0.3,1.3-0.4,1.8l-0.6,2H190.7z"/>
		<path class="st3" d="M196.9,104v5.4c0,1.6,0.6,2.4,1.7,2.4c1.1,0,1.7-0.8,1.7-2.4V104h2.1v5.3c0,2.9-1.5,4.3-3.9,4.3
			s-3.8-1.3-3.8-4.3V104H196.9z"/>
	</g>
	<rect x="7.5" y="94.5" class="st3" width="196" height="0.9"/>
</g>
</svg>
