<?xml version="1.0" encoding="UTF-8"?>
<svg width="20pt" height="20pt" version="1.1" viewBox="0 0 100 100" xmlns="http://www.w3.org/2000/svg">
 <g>
  <path d="m76.25 50c0 1.3594-0.097656 2.7266-0.27344 4.0703 0.046876-0.34375 0.097657-0.69531 0.13672-1.0352-0.35938 2.6172-1.0547 5.1758-2.0703 7.6094 0.125-0.3125 0.26562-0.625 0.39062-0.9375-1.0234 2.4141-2.3516 4.6875-3.9531 6.7656 0.20312-0.26562 0.41016-0.52734 0.61719-0.78906-1.5742 2.0234-3.3906 3.8359-5.4219 5.4219 0.26562-0.20312 0.52734-0.41016 0.78906-0.61719-2.0781 1.6016-4.3438 2.9297-6.7656 3.9531 0.3125-0.125 0.625-0.26562 0.9375-0.39062-2.4414 1.0156-4.9922 1.7109-7.6094 2.0703 0.34375-0.046875 0.69531-0.097656 1.0352-0.13672-2.7031 0.35938-5.4375 0.35938-8.1445 0 0.34375 0.046875 0.69531 0.097656 1.0352 0.13672-2.6172-0.35938-5.1758-1.0547-7.6094-2.0703 0.3125 0.125 0.625 0.26562 0.9375 0.39062-2.4141-1.0234-4.6875-2.3516-6.7656-3.9531 0.26562 0.20312 0.52734 0.41016 0.78906 0.61719-2.0234-1.5742-3.8359-3.3906-5.4219-5.4219 0.20313 0.26562 0.41016 0.52734 0.61719 0.78906-1.6016-2.0781-2.9297-4.3438-3.9531-6.7656 0.125 0.3125 0.26562 0.625 0.39062 0.9375-1.0156-2.4414-1.7109-4.9922-2.0703-7.6094 0.046874 0.34375 0.097656 0.69531 0.13672 1.0352-0.35938-2.7031-0.35938-5.4375 0-8.1445-0.046875 0.34375-0.097656 0.69531-0.13672 1.0352 0.35937-2.6172 1.0547-5.1758 2.0703-7.6094-0.125 0.3125-0.26562 0.625-0.39062 0.9375 1.0234-2.4141 2.3516-4.6875 3.9531-6.7656-0.20312 0.26562-0.41016 0.52734-0.61719 0.78906 1.5742-2.0234 3.3906-3.8359 5.4219-5.4219-0.26563 0.20312-0.52734 0.41016-0.78906 0.61719 2.0781-1.6016 4.3438-2.9297 6.7656-3.9531-0.3125 0.125-0.625 0.26562-0.9375 0.39062 2.4414-1.0156 4.9922-1.7109 7.6094-2.0703-0.34375 0.046875-0.69531 0.097656-1.0352 0.13672 2.7031-0.35938 5.4375-0.35938 8.1445 0-0.34375-0.046875-0.69531-0.097657-1.0352-0.13672 2.6172 0.35938 5.1758 1.0547 7.6094 2.0703-0.3125-0.125-0.625-0.26562-0.9375-0.39062 2.4141 1.0234 4.6875 2.3516 6.7656 3.9531-0.26562-0.20312-0.52734-0.41016-0.78906-0.61719 2.0234 1.5742 3.8359 3.3906 5.4219 5.4219-0.20312-0.26562-0.41016-0.52734-0.61719-0.78906 1.6016 2.0781 2.9297 4.3438 3.9531 6.7656-0.125-0.3125-0.26562-0.625-0.39062-0.9375 1.0156 2.4414 1.7109 4.9922 2.0703 7.6094-0.046875-0.34375-0.097656-0.69531-0.13672-1.0352 0.1875 1.3477 0.27344 2.7148 0.27344 4.0742 0 2.0391 1.7969 4.0039 3.9062 3.9062s3.9141-1.7188 3.9062-3.9062c-0.019531-6.8945-2.1172-13.867-6.1406-19.492-1.0625-1.4844-2.207-2.9219-3.4766-4.2266-1.2812-1.3203-2.6758-2.4805-4.1328-3.5938-2.6953-2.0508-5.6953-3.6016-8.8672-4.7656-6.5508-2.4141-14.004-2.6094-20.711-0.70312-6.4844 1.8359-12.508 5.6641-16.797 10.879-1.1641 1.4141-2.2578 2.8906-3.1953 4.4531-0.95703 1.5938-1.7188 3.2617-2.4219 4.9688-1.3203 3.2109-2.0234 6.6328-2.2969 10.086-0.53906 6.9062 1.1914 14.031 4.7734 19.953 3.4766 5.7422 8.7031 10.547 14.836 13.312 1.6992 0.76172 3.4297 1.4453 5.2266 1.9531 1.8359 0.50781 3.7109 0.8125 5.6055 1.0352 3.5352 0.41016 7.1367 0.16406 10.625-0.53906 6.5938-1.3359 12.805-4.8438 17.453-9.6875 4.6953-4.9023 8.0078-11.258 9.043-17.988 0.28125-1.875 0.48828-3.75 0.48828-5.6445 0-2.0391-1.7969-4.0039-3.9062-3.9062-2.1289 0.097656-3.9102 1.7188-3.918 3.9062z" fill="#fff"/>
  <path d="m53.906 19.844v-10.391-1.4844c0-2.0391-1.7969-4.0039-3.9062-3.9062-2.1172 0.097656-3.9062 1.7188-3.9062 3.9062v10.391 1.4844c0 2.0391 1.7969 4.0039 3.9062 3.9062 2.1211-0.097656 3.9062-1.7188 3.9062-3.9062z" fill="#fff"/>
  <path d="m53.906 92.039v-10.391-1.4844c0-2.0391-1.7969-4.0039-3.9062-3.9062-2.1172 0.097657-3.9062 1.7188-3.9062 3.9062v10.391 1.4844c0 2.0391 1.7969 4.0039 3.9062 3.9062 2.1211-0.09375 3.9062-1.7188 3.9062-3.9062z" fill="#fff"/>
  <path d="m19.844 46.094h-10.391-1.4844c-2.0391 0-4.0039 1.7969-3.9062 3.9062 0.097656 2.1172 1.7188 3.9062 3.9062 3.9062h10.391 1.4844c2.0391 0 4.0039-1.7969 3.9062-3.9062-0.097656-2.1172-1.7188-3.9062-3.9062-3.9062z" fill="#fff"/>
  <path d="m92.039 46.094h-10.391-1.4844c-2.0391 0-4.0039 1.7969-3.9062 3.9062 0.097657 2.1172 1.7188 3.9062 3.9062 3.9062h10.391 1.4844c2.0391 0 4.0039-1.7969 3.9062-3.9062-0.09375-2.1172-1.7188-3.9062-3.9062-3.9062z" fill="#fff"/>
  <path d="m55.156 50c0 0.41016-0.03125 0.8125-0.078125 1.2188 0.046875-0.34375 0.097656-0.69531 0.13672-1.0352-0.10938 0.78125-0.3125 1.543-0.61719 2.2734 0.125-0.3125 0.26562-0.625 0.39062-0.9375-0.30469 0.71094-0.69531 1.375-1.1523 2 0.20312-0.26562 0.41016-0.52734 0.61719-0.78906-0.49609 0.64453-1.0625 1.2109-1.7109 1.7109 0.26562-0.20312 0.52734-0.41016 0.78906-0.61719-0.61719 0.46875-1.2891 0.84766-2 1.1523 0.3125-0.125 0.625-0.26562 0.9375-0.39062-0.73438 0.30469-1.4922 0.50781-2.2734 0.61719 0.34375-0.046875 0.69531-0.097656 1.0352-0.13672-0.8125 0.10938-1.6211 0.10938-2.4414 0 0.34375 0.046875 0.69531 0.097656 1.0352 0.13672-0.78125-0.10938-1.543-0.3125-2.2734-0.61719 0.3125 0.125 0.625 0.26562 0.9375 0.39062-0.71094-0.30469-1.375-0.69531-2-1.1523 0.26562 0.20312 0.52734 0.41016 0.78906 0.61719-0.64453-0.49609-1.2109-1.0625-1.7109-1.7109 0.20312 0.26562 0.41016 0.52734 0.61719 0.78906-0.46875-0.61719-0.84766-1.2891-1.1523-2 0.125 0.3125 0.26562 0.625 0.39062 0.9375-0.30469-0.73438-0.50781-1.4922-0.61719-2.2734 0.046874 0.34375 0.097656 0.69531 0.13672 1.0352-0.10938-0.8125-0.10938-1.6211 0-2.4414-0.046875 0.34375-0.097656 0.69531-0.13672 1.0352 0.10937-0.78125 0.3125-1.543 0.61719-2.2734-0.125 0.3125-0.26562 0.625-0.39062 0.9375 0.30469-0.71094 0.69531-1.375 1.1523-2-0.20312 0.26563-0.41016 0.52734-0.61719 0.78906 0.49609-0.64453 1.0625-1.2109 1.7109-1.7109-0.26562 0.20312-0.52734 0.41016-0.78906 0.61719 0.61719-0.46875 1.2891-0.84766 2-1.1523-0.3125 0.125-0.625 0.26562-0.9375 0.39062 0.73438-0.30469 1.4922-0.50781 2.2734-0.61719-0.34375 0.046875-0.69531 0.097656-1.0352 0.13672 0.8125-0.10938 1.6211-0.10938 2.4414 0-0.34375-0.046876-0.69531-0.097657-1.0352-0.13672 0.78125 0.10938 1.543 0.3125 2.2734 0.61719-0.3125-0.125-0.625-0.26562-0.9375-0.39062 0.71094 0.30469 1.375 0.69531 2 1.1523-0.26562-0.20312-0.52734-0.41016-0.78906-0.61719 0.64453 0.49609 1.2109 1.0625 1.7109 1.7109-0.20312-0.26562-0.41016-0.52734-0.61719-0.78906 0.46875 0.61719 0.84766 1.2891 1.1523 2-0.125-0.3125-0.26562-0.625-0.39062-0.9375 0.30469 0.73438 0.50781 1.4922 0.61719 2.2734-0.046875-0.34375-0.097656-0.69531-0.13672-1.0352 0.046875 0.41016 0.078125 0.8125 0.078125 1.2227 0.007812 1.0078 0.42969 2.0508 1.1406 2.7656 0.67188 0.67188 1.7891 1.1914 2.7656 1.1406 2.1016-0.097656 3.9258-1.7188 3.9062-3.9062-0.019531-2.5312-0.74219-5.1953-2.2344-7.2656-0.95703-1.3281-1.9531-2.3438-3.2617-3.3203-0.99609-0.75-2.1289-1.2578-3.293-1.6875-4.7734-1.7578-10.781-0.14844-13.984 3.8203-1.0156 1.25-1.7188 2.4297-2.3125 3.9258-0.49609 1.2305-0.71094 2.5312-0.8125 3.8594-0.1875 2.5 0.50781 5.1562 1.7891 7.3047 1.2578 2.1094 3.2031 3.9922 5.4492 5.0078 1.5547 0.70312 2.9297 1.0859 4.6172 1.2695 1.2891 0.14844 2.5977 0.007813 3.8672-0.24219 2.6172-0.50781 5.2422-2.0625 6.9414-4.1016 1.1133-1.3359 1.875-2.6367 2.5-4.2656 0.51562-1.3477 0.73438-2.8594 0.74219-4.2969 0.019532-2.0391-1.8047-4.0039-3.9062-3.9062-2.1367 0.089844-3.8945 1.7109-3.9141 3.8984z" fill="#fff"/>
 </g>
</svg>
